<svg xmlns="http://www.w3.org/2000/svg" xmlns:xlink="http://www.w3.org/1999/xlink" version="1.0" id="Layer_1" x="0px" y="0px" width="25.89px" height="19.887px" viewBox="0 0 25.89 19.887" style="enable-background:new 0 0 25.89 19.887;" xml:space="preserve">
<path d="M25.889,13.406c0-1.092-1.883-2.154-3.562-2.718h0c-0.076-0.025-0.561-0.245-0.257-1.183h-0.006  c0.788-0.822,1.389-2.148,1.389-3.455c0-2.006-1.313-3.059-2.839-3.059c-1.527,0-2.833,1.053-2.833,3.059  c0,1.311,0.599,2.645,1.389,3.465c0.115,0.311,0.11,0.548,0.052,0.725c0.818,0.701,2.001,2.154,1.596,4.92  c-0.398-1.258-0.989-2.398-1.729-3.26c-0.726-0.991-2.448-1.885-4.032-2.416c-0.094-0.031-0.689-0.303-0.316-1.457h-0.006  c0.97-1.013,1.71-2.648,1.71-4.257c0-2.473-1.619-3.77-3.499-3.77c-1.882,0-3.492,1.297-3.492,3.77c0,1.615,0.738,3.258,1.711,4.27  c0.381,1.016-0.299,1.392-0.442,1.445c-1.02,0.375-2.124,0.91-2.959,1.52c-0.044,0.031-0.085,0.069-0.128,0.102  c-0.199,0.153-0.376,0.31-0.533,0.471c-0.091,0.091-0.18,0.184-0.267,0.282c-0.001,0.001-0.002,0.002-0.002,0.002  c-0.755,0.865-1.357,2.023-1.762,3.3c-0.405-2.766,0.777-4.219,1.596-4.92C6.609,10.065,6.605,9.828,6.72,9.517  c0.79-0.82,1.389-2.154,1.389-3.465c0-2.006-1.306-3.059-2.833-3.059c-1.526,0-2.84,1.053-2.84,3.059  c0,1.307,0.601,2.633,1.39,3.455H3.82c0.304,0.938-0.181,1.157-0.257,1.183C1.885,11.253,0,12.316,0,13.406  c0,0.285,0.001,2.314,0.001,2.599c0,1.441,4.803,3.882,12.964,3.882s12.925-2.44,12.925-3.882  C25.89,15.721,25.889,13.692,25.889,13.406z"/>
</svg>